<svg xmlns="http://www.w3.org/2000/svg" viewBox="0 0 32 32" fill="none">
  <rect x="2" y="2" width="28" height="28" rx="8" fill="#25D366"/>
  <path fill="#fff" d="M16 7c-5 0-9 4-9 9 0 1.6.4 3.1 1.2 4.4L7 25l4.8-1.3c1.3.7 2.7 1.1 4.2 1.1 5 0 9-4 9-9s-4-9-9-9Zm0 16c-1.4 0-2.7-.4-3.9-1l-.3-.2-2.8.8.8-2.7-.2-.3C9.3 18.2 9 17.1 9 16c0-3.9 3.1-7 7-7s7 3.1 7 7-3.1 7-7 7Zm3.8-5.2c-.2-.1-1.2-.6-1.4-.6-.2-.1-.4-.1-.5.1-.2.2-.6.7-.7.9-.1.1-.3.2-.5.1-.2-.1-.9-.3-1.7-1-.6-.5-1-1.2-1.1-1.4-.1-.2 0-.3.1-.4l.3-.4c.1-.1.1-.2.2-.4 0-.1 0-.3 0-.4 0-.1-.5-1.2-.7-1.6-.2-.4-.4-.4-.5-.4h-.5c-.1 0-.4 0-.6.3-.2.2-.8.8-.8 2 0 1.1.8 2.2 1 2.4.1.2 1.7 2.6 4.2 3.6.6.3 1 .4 1.4.5.6.2 1.1.1 1.5.1.5-.1 1.5-.6 1.7-1.2.2-.6.2-1.1.1-1.2-.1-.1-.2-.2-.4-.3Z"/>
</svg>
